<?xml version="1.0" standalone="no"?>
<!DOCTYPE svg PUBLIC "-//W3C//DTD SVG 20010904//EN"
 "http://www.w3.org/TR/2001/REC-SVG-20010904/DTD/svg10.dtd">
<svg version="1.0" xmlns="http://www.w3.org/2000/svg"
 width="512.000000pt" height="512.000000pt" viewBox="0 0 512.000000 512.000000"
 preserveAspectRatio="xMidYMid meet">

<g transform="translate(0.000000,512.000000) scale(0.100000,-0.100000)"
fill="#000000" stroke="none">
<path d="M335 5095 l-25 -24 0 -2151 0 -2150 -130 0 c-126 0 -132 -1 -155 -25
-25 -24 -25 -26 -25 -205 0 -179 0 -181 25 -205 23 -24 29 -25 155 -25 l130 0
0 -130 c0 -126 1 -132 25 -155 l24 -25 334 0 c421 0 387 -15 387 176 l0 134
200 0 c200 0 201 0 225 25 14 13 25 31 25 40 0 12 15 15 85 15 81 0 86 -1 95
-24 22 -59 -52 -56 1192 -56 l1138 0 0 -134 c0 -191 -34 -176 387 -176 l334 0
24 25 c24 23 25 29 25 155 l0 130 130 0 c126 0 132 1 155 25 25 24 25 26 25
205 0 179 0 181 -25 205 -23 24 -29 25 -155 25 l-130 0 0 1599 0 1600 -22 25
c-35 38 -69 42 -104 13 l-29 -25 -3 -1601 -2 -1601 -75 0 -75 0 0 2090 0 2090
75 0 75 0 0 -339 c0 -348 4 -392 40 -411 32 -17 70 -11 95 15 l25 24 0 411 0
411 -25 24 c-24 25 -26 25 -203 25 -162 0 -182 -2 -203 -19 l-24 -19 -5 -914
-5 -913 -72 -3 -73 -3 -2 761 -3 762 -24 19 c-23 19 -63 19 -1611 19 -1548 0
-1588 0 -1611 -19 l-24 -19 -3 -762 -2 -761 -73 3 -72 3 -5 913 -5 914 -24 19
c-21 17 -41 19 -203 19 -177 0 -179 0 -203 -25z m285 -2220 l0 -2095 -75 0
-75 0 0 2095 0 2095 75 0 75 0 0 -2095z m920 1595 c0 -189 0 -191 25 -215 33
-34 63 -31 147 11 l71 36 69 -36 c73 -38 97 -43 128 -26 32 17 40 67 40 246
l0 174 230 0 230 0 0 -700 0 -700 -700 0 -700 0 0 700 0 700 230 0 230 0 0
-190z m320 81 l0 -108 -40 10 c-28 8 -52 8 -80 0 l-40 -10 0 108 0 109 80 0
80 0 0 -109z m1240 -71 c0 -139 3 -188 15 -209 27 -53 61 -54 157 -5 l72 36
70 -36 c94 -48 124 -47 151 5 12 21 15 70 15 209 l0 180 230 0 230 0 0 -700 0
-700 -700 0 -700 0 0 700 0 700 230 0 230 0 0 -180z m320 71 l0 -110 -30 11
c-31 10 -80 8 -112 -7 -17 -7 -18 2 -18 104 l0 111 80 0 80 0 0 -109z m-756
-1706 c14 -56 -7 -55 876 -55 l810 0 0 -1010 0 -1010 -75 0 -75 0 -2 761 -3
761 -24 19 c-23 19 -63 19 -1611 19 -1548 0 -1588 0 -1611 -19 l-24 -19 -3
-761 -2 -761 -75 0 -75 0 0 1010 0 1010 819 0 c528 0 829 4 846 10 15 6 32 23
38 40 l11 30 87 0 c84 0 87 -1 93 -25z m-1124 -845 c0 -142 3 -187 15 -210 25
-48 56 -48 147 -4 l79 38 73 -37 c81 -41 85 -42 119 -26 41 19 47 48 47 239
l0 180 230 0 230 0 0 -705 0 -705 -700 0 -700 0 0 705 0 705 230 0 230 0 0
-180z m320 70 c0 -106 -1 -110 -19 -100 -25 13 -82 13 -115 0 l-26 -10 0 110
0 110 80 0 80 0 0 -110z m1240 -64 c0 -187 7 -227 46 -245 35 -16 40 -15 125
25 l76 36 73 -37 c78 -39 105 -40 140 -5 19 19 20 34 20 210 l0 190 230 0 230
0 0 -705 0 -705 -700 0 -700 0 0 705 0 705 230 0 230 0 0 -174z m320 64 c0
-106 -1 -110 -19 -100 -25 13 -82 13 -115 0 l-26 -10 0 110 0 110 80 0 80 0 0
-110z m-2490 -1840 l0 -80 -230 0 -230 0 0 80 0 80 230 0 230 0 0 -80z m3720
0 l0 -80 -230 0 -230 0 0 80 0 80 230 0 230 0 0 -80z"/>
<path d="M1897 3548 c-40 -31 -36 -115 8 -132 9 -3 94 -6 189 -6 160 0 175 2
200 21 34 27 36 77 3 107 -22 21 -32 22 -203 22 -129 0 -185 -4 -197 -12z"/>
<path d="M3452 3540 c-30 -28 -29 -80 1 -108 22 -21 32 -22 203 -22 176 0 181
1 202 23 29 31 29 77 -1 105 -22 21 -32 22 -203 22 -168 0 -182 -1 -202 -20z"/>
<path d="M1891 1062 c-33 -26 -31 -79 3 -109 26 -22 33 -23 202 -23 172 0 175
0 199 25 32 31 33 74 2 103 -22 21 -32 22 -204 22 -158 0 -184 -2 -202 -18z"/>
<path d="M3450 1060 c-30 -30 -27 -83 6 -109 25 -19 40 -21 199 -21 159 0 174
2 199 21 33 26 36 79 6 109 -19 19 -33 20 -205 20 -172 0 -186 -1 -205 -20z"/>
</g>
</svg>
